HIERARCHY
ROOT Hips
{
    OFFSET 0.000000 0.000000 0.000000
    CHANNELS 6 Xposition Yposition Zposition Zrotation Xrotation Yrotation
        JOINT Chest
        {
            OFFSET -0.000000 28.596201 -0.000000
            CHANNELS 3 Zrotation Xrotation Yrotation
            JOINT Neck
            {
                OFFSET -0.000000 20.833183 0.000000
                CHANNELS 3 Zrotation Xrotation Yrotation
                JOINT Head
                {
                    OFFSET -0.000000 10.327778 0.000000
                    CHANNELS 3 Zrotation Xrotation Yrotation
                    End Site
                    {
                        OFFSET -0.000000 15.961117 0.000000
                    }
                }
            }
            JOINT LeftCollar
            {
                OFFSET -0.000000 20.833183 0.000000
                CHANNELS 3 Zrotation Xrotation Yrotation
                JOINT LeftShoulder
                {
                    OFFSET 18.777777 -0.000000 0.000000
                    CHANNELS 3 Zrotation Xrotation Yrotation
                    JOINT LeftElbow
                    {
                        OFFSET 23.016544 0.000000 0.000000
                        CHANNELS 3 Zrotation Xrotation Yrotation
                        JOINT LeftWrist
                        {
                            OFFSET 24.619797 0.000000 0.000000
                            CHANNELS 3 Zrotation Xrotation Yrotation
                            End Site
                            {
                                OFFSET 0.000000 -14.083333 0.000000
                            }
                        }
                    }
                }
            }
            JOINT RightCollar
            {
                OFFSET -0.000000 20.833183 0.000000
                CHANNELS 3 Zrotation Xrotation Yrotation
                JOINT RightShoulder
                {
                    OFFSET -18.777777 0.000000 0.000000
                    CHANNELS 3 Zrotation Xrotation Yrotation
                    JOINT RightElbow
                    {
                        OFFSET -23.016544 0.000000 0.000000
                        CHANNELS 3 Zrotation Xrotation Yrotation
                        JOINT RightWrist
                        {
                            OFFSET -24.619797 0.000000 0.000000
                            CHANNELS 3 Zrotation Xrotation Yrotation
                            End Site
                            {
                                OFFSET -0.000000 -14.083333 0.000000
                            }
                        }
                    }
                }
            }
        }
    JOINT LeftHip
    {
        OFFSET 11.266668 0.000000 0.000000
        CHANNELS 3 Zrotation Xrotation Yrotation
        JOINT LeftKnee
        {
            OFFSET -0.000000 -40.535309 0.000000
            CHANNELS 3 Zrotation Xrotation Yrotation
            JOINT LeftAnkle
            {
                OFFSET -0.000000 -39.958225 0.000000
                CHANNELS 3 Zrotation Xrotation Yrotation
                End Site
                {
                    OFFSET -0.000000 -4.694444 15.961117
                }
            }
        }
    }
    JOINT RightHip
    {
        OFFSET -11.266668 0.000000 0.000000
        CHANNELS 3 Zrotation Xrotation Yrotation
        JOINT RightKnee
        {
            OFFSET -0.000000 -40.535309 0.000000
            CHANNELS 3 Zrotation Xrotation Yrotation
            JOINT RightAnkle
            {
                OFFSET -0.000000 -39.958225 0.000000
                CHANNELS 3 Zrotation Xrotation Yrotation
                End Site
                {
                    OFFSET -0.000000 -4.694444 15.961117
                }
            }
        }
    }
}
MOTION
Frames:    15
Frame Time:    0.010000
-16.514135    79.671318    -21.317438    7.713017    2.212524    -120.468887    -9.555265    41.477295    37.160774    -4.554111    -14.489994    -8.974289    -9.318711    -11.709153    -9.353300    -2.402279    -0.579234    27.288721    -39.414078    73.021126    -8.176508    10.057243    -5.364349    -63.440865    102.472527    -4.423271    8.339160    3.153619    0.628700    26.476814    6.308878    -5.799819    32.031437    -14.744434    -2.231910    16.501287    -105.642052    19.254803    -44.136044    10.263132    -47.418694    -13.437769    -34.020432    40.158665    27.197468    1.081827    -13.945699    11.930864    5.868190    -49.182838    -11.861343    -24.750200    53.458469    18.656532    13.358362    -11.115541    11.422798    
-16.805651    79.174667    -21.603220    8.044561    1.990724    -120.258354    -10.954920    41.624062    37.579967    -4.396266    -14.573732    -9.138475    -9.351349    -12.408592    -9.595209    -2.691535    -0.661381    27.188784    -41.751556    72.927956    -5.608957    8.654560    -4.417224    -62.168221    102.536140    -5.131593    7.858813    2.726277    0.541736    26.740124    6.397035    -6.323721    32.206688    -14.851870    -2.180911    16.160500    -105.601501    20.586330    -45.206226    8.020843    -48.913605    -16.242781    -31.100388    37.655605    27.169704    0.200499    -11.967578    12.565802    5.386701    -50.624767    -12.618439    -26.554131    55.625629    19.740528    13.224811    -12.135632    12.592072    
-17.102354    78.541580    -21.889385    8.290236    2.021219    -120.022644    -12.142322    42.052006    37.794979    -4.168218    -14.609007    -9.227560    -9.438977    -13.137933    -9.782491    -2.972462    -0.751303    27.224266    -43.697498    73.033470    -3.543591    7.530438    -3.751142    -60.709805    102.334389    -5.765019    7.086971    2.346484    0.468671    27.018150    6.520379    -6.812807    32.454536    -14.912134    -2.136448    15.855637    -105.503098    21.870014    -46.266708    5.931207    -50.189014    -19.253454    -28.828850    35.628269    27.219608    0.305878    -9.692510    13.874318    4.973444    -51.922260    -13.446078    -28.640036    57.872143    21.128523    13.037833    -13.200768    13.721571    
-17.439789    77.697388    -22.219006    8.326517    2.529572    -119.766403    -13.052206    42.998875    37.958218    -3.765198    -14.606233    -9.217183    -9.640925    -13.883699    -9.910418    -3.190383    -0.809502    27.496717    -44.941746    73.499603    -2.344955    6.721516    -3.328344    -59.097794    101.940659    -6.275357    6.113820    2.046165    0.418828    27.321186    6.666502    -7.286607    32.787704    -14.939366    -2.085981    15.583105    -105.337112    23.091454    -47.333134    4.256811    -51.163509    -22.360355    -27.446424    34.273247    27.374556    1.383654    -7.184574    15.747025    4.752507    -52.855022    -14.402559    -31.130156    60.176060    22.997034    12.774554    -14.310213    14.746369    
-17.917677    76.564064    -22.684650    7.808993    3.897876    -119.505997    -13.827746    44.896729    38.483414    -3.063556    -14.591406    -9.078125    -10.027212    -14.631614    -9.976157    -3.298929    -0.821959    28.063070    -45.313801    74.361809    -2.229522    6.249367    -3.127017    -57.346874    101.366219    -6.665293    4.967741    1.857344    0.394553    27.651714    6.826529    -7.766531    33.220829    -14.933983    -2.055465    15.347566    -105.134163    24.248871    -48.370033    3.339725    -51.460114    -25.235727    -27.098953    33.783882    27.531126    3.254448    -4.549527    17.997665    4.907043    -52.860401    -15.451283    -33.980968    62.479622    25.342659    12.421055    -15.454884    15.604933    
-18.741707    75.169167    -23.434622    6.046150    6.536354    -119.242653    -15.185268    48.313541    40.242676    -2.126191    -14.631577    -8.848829    -10.568046    -15.326941    -10.001572    -3.275009    -0.859309    28.852619    -44.900505    75.572456    -3.146896    6.146702    -3.140380    -55.444973    100.571938    -6.969382    3.656345    1.743532    0.397791    27.958132    7.014596    -8.295964    33.752728    -14.900552    -2.000500    15.167188    -104.887367    25.323217    -49.373356    3.427051    -50.180183    -27.194874    -27.602440    34.272045    27.263460    5.613455    -1.962869    20.426825    5.541347    -50.880039    -16.353157    -36.603283    64.674522    27.614384    11.979188    -16.622684    16.248655    
-20.108107    73.825577    -24.552158    2.355849    10.352904    -118.821831    -18.675213    53.285828    44.550205    -1.463953    -14.770104    -8.740409    -10.988841    -15.883394    -10.088297    -3.268780    -0.887873    29.498640    -43.750351    76.906639    -4.954167    6.061114    -3.096712    -53.570415    99.866188    -7.120494    2.177125    1.586220    0.377458    28.083469    7.212505    -8.867908    34.296227    -14.834655    -1.982718    15.053217    -104.664352    26.324673    -50.266159    4.178008    -46.301414    -27.575403    -28.194323    35.618900    25.881546    8.085578    0.355969    22.836967    6.364547    -45.941162    -16.730515    -37.642788    66.626884    28.476059    11.501649    -17.801880    16.683786    
-21.882681    72.971634    -25.859749    -3.038629    14.438946    -117.930313    -26.004995    58.522835    52.546986    -1.567091    -14.907563    -8.958048    -10.999477    -16.323301    -10.333939    -3.417630    -0.926758    29.594671    -42.412025    78.167450    -7.066361    6.036006    -2.971649    -51.725929    99.068359    -7.160767    0.586556    1.319205    0.290293    27.943443    7.365701    -9.416503    34.701225    -14.772194    -1.945471    15.011561    -104.406891    27.237076    -51.122257    4.710711    -40.043865    -26.463955    -28.036264    37.538033    23.142328    10.324558    2.206723    25.016502    6.821730    -38.540726    -16.429737    -36.132534    68.257904    26.900255    11.105336    -18.971853    16.998627    
-23.667101    72.672668    -27.066963    -9.089903    17.849010    -116.473610    -37.418392    62.290203    64.027451    -2.217016    -14.935304    -9.392257    -10.653782    -16.765928    -10.673837    -3.700286    -1.021886    29.241350    -41.120129    79.288322    -9.231534    6.094609    -2.903456    -49.851013    98.223465    -7.129825    -1.012678    1.002828    0.194027    27.712601    7.459468    -9.947923    34.926247    -14.696444    -1.960616    15.055824    -104.205994    28.061752    -51.836746    4.604372    -33.029373    -24.468836    -27.157482    39.890171    19.679302    12.153611    3.427207    26.831554    6.711868    -30.481367    -15.709048    -32.913616    69.614311    23.637981    10.871795    -20.108208    17.270290    
-25.225002    72.681061    -28.057438    -14.963266    20.284634    -114.647270    -50.952961    63.894634    76.920258    -2.855391    -14.845489    -9.815674    -10.247662    -17.298578    -11.004292    -4.060296    -1.120231    28.751356    -39.225037    80.199448    -12.023411    6.115582    -2.792831    -48.029232    97.404350    -7.018107    -2.514799    0.757287    0.132451    27.560909    7.487794    -10.488255    35.029797    -14.660134    -1.950814    15.175628    -103.949753    28.770220    -52.562370    4.052526    -26.616457    -22.066139    -26.099585    42.661484    16.249733    13.587645    3.931224    28.278751    6.182323    -23.092323    -14.918701    -29.456005    70.827904    20.146431    10.790062    -21.203081    17.497261    
-26.536015    72.789032    -28.858042    -20.340553    21.862144    -112.670624    -63.965893    63.734116    88.714409    -3.213640    -14.676549    -10.140627    -9.965909    -17.926348    -11.299809    -4.453249    -1.218685    28.228167    -36.479568    80.842293    -15.671119    6.116847    -2.685378    -46.260994    96.603752    -6.862720    -3.838682    0.630073    0.116028    27.497660    7.480660    -11.047615    35.054714    -14.657058    -1.970482    15.368313    -103.693260    29.363976    -53.265656    3.333418    -21.233658    -19.453539    -25.132360    45.775272    13.116591    14.726691    3.746265    29.404741    5.413553    -16.731478    -14.223115    -26.457150    71.990776    17.145054    10.819077    -22.257963    17.662186    
-27.647591    72.905037    -29.523003    -25.156271    22.776352    -110.680305    -75.062462    62.571327    98.205200    -3.279117    -14.466352    -10.368524    -9.834627    -18.612175    -11.564877    -4.877568    -1.311179    27.646175    -33.280083    81.137108    -19.732285    6.068595    -2.551867    -44.613392    95.861595    -6.672568    -4.934225    0.606130    0.142195    27.480923    7.475778    -11.626570    35.017384    -14.685459    -2.013910    15.631435    -103.415764    29.805355    -53.970005    2.621624    -16.828428    -16.690386    -24.201956    49.072891    10.168817    15.669600    2.995543    30.253597    4.529842    -11.317745    -13.643707    -23.977615    73.119270    14.691091    10.930452    -23.270922    17.774696    
-28.604856    73.000626    -30.095512    -29.411575    23.194847    -108.749924    -84.154373    61.032360    105.477119    -3.112471    -14.242990    -10.515837    -9.820886    -19.314390    -11.799181    -5.328044    -1.402924    26.975691    -30.485451    81.044907    -23.320692    6.012731    -2.411437    -43.132214    95.175377    -6.468749    -5.780777    0.679631    0.158125    27.477589    7.478148    -12.172975    34.925304    -14.775471    -2.068417    15.944091    -103.058624    30.089779    -54.785431    2.015908    -13.236349    -13.819892    -23.137951    52.366482    7.176987    16.482969    1.851048    30.865633    3.619629    -6.692887    -13.157272    -21.862341    74.190483    12.600781    11.108587    -24.235708    17.863312    
-29.440557    73.071587    -30.605967    -33.123947    23.250504    -106.917091    -91.641121    59.494781    111.079033    -2.797961    -14.021894    -10.598732    -9.869715    -19.997686    -11.996669    -5.792906    -1.487213    26.221046    -28.729881    80.593994    -25.780655    5.954672    -2.311786    -41.886242    94.603424    -6.251163    -6.393850    0.804702    0.184540    27.469507    7.551237    -12.696223    34.794094    -14.887729    -2.142052    16.320814    -102.679062    30.200987    -55.644131    1.570898    -10.298238    -10.902899    -21.773193    55.485382    3.925387    17.201935    0.490010    31.278904    2.751382    -2.720039    -12.738328    -19.923758    75.173874    10.650464    11.346000    -25.143564    17.959698    
-30.178326    73.122070    -31.075335    -36.320824    23.047497    -105.198715    -97.925446    58.144699    115.538734    -2.433589    -13.804880    -10.635638    -9.915934    -20.637447    -12.148305    -6.252514    -1.552629    25.430746    -27.947927    79.886124    -27.176828    5.980792    -2.260202    -40.930233    94.130951    -6.022995    -6.712959    0.942385    0.233800    27.452639    7.706294    -13.198846    34.636539    -15.039878    -2.216381    16.754692    -102.237183    30.139643    -56.612324    1.308390    -7.883806    -7.998049    -19.972651    58.309071    0.239655    17.843613    -0.932258    31.531542    1.976366    0.706121    -12.370247    -18.002077    76.045410    8.649855    11.643292    -25.983393    18.088869    
